<svg width="11" height="19" viewBox="0 0 11 19" fill="none" xmlns="http://www.w3.org/2000/svg">
<path d="M10.5059 9.32422C10.5059 9.59277 10.4092 9.8291 10.2051 10.0332L1.68652 18.3584C1.50391 18.5518 1.26758 18.6484 0.988281 18.6484C0.429688 18.6484 0 18.2295 0 17.6709C0 17.3916 0.118164 17.1553 0.290039 16.9727L8.11035 9.32422L0.290039 1.67578C0.118164 1.49316 0 1.24609 0 0.977539C0 0.418945 0.429688 0 0.988281 0C1.26758 0 1.50391 0.0966797 1.68652 0.279297L10.2051 8.61523C10.4092 8.80859 10.5059 9.05566 10.5059 9.32422Z" fill="white"/>
</svg>
