<svg width="300" height="38" viewBox="0 0 300 38" fill="none" xmlns="http://www.w3.org/2000/svg">
<path d="M28.125 23.18H8.175V18.164H33.9C33.225 16.036 31.05 14.06 27.225 14.06H8.55C4.275 14.06 1.8 15.656 1.8 19.152V22.876C1.8 25.916 4.35 27.664 8.1 27.664H28.275V32.984H1.125C1.8 35.872 3.975 37.392 7.875 37.392H28.2C32.475 37.392 34.575 35.72 34.575 32.148V28.424C34.575 25.156 32.1 23.408 28.125 23.18Z" fill="white"/>
<path d="M68.85 14.136H44.25V37.468H51.225V28.5H69.375C74.4 28.5 77.175 26.752 77.175 22.648V20.064C77.1 16.264 73.95 14.136 68.85 14.136ZM71.1 21.584C71.1 23.256 70.8 24.168 68.1 24.168H51.225L51.3 18.088H67.8C70.8 18.088 71.175 19 71.175 20.596V21.584H71.1Z" fill="white"/>
<path d="M97.425 13.148L93.225 18.392L100.35 28.348H85.5L81.825 32.3H103.275L106.95 37.468H115.2L97.425 13.148Z" fill="white"/>
<path d="M128.55 18.164H154.65C153.975 15.428 151.35 14.06 147.6 14.06H128.1C124.725 14.06 121.5 15.428 121.5 19.152V32.224C121.5 35.948 124.725 37.316 128.1 37.316H147.825C152.325 37.316 153.9 36.024 154.65 32.908H128.55V18.164Z" fill="white"/>
<path d="M171.225 33.06V25.916H185.25V21.964H164.175V37.468H195.3V33.06H171.225Z" fill="white"/>
<path d="M196.35 14.136H164.925V18.24H196.35V14.136Z" fill="white"/>
<path d="M215.7 14.136H204.75L217.65 23.712C219.525 22.42 221.7 21.052 223.65 19.912L215.7 14.136ZM231.6 26.068C229.725 27.36 227.85 28.804 226.05 30.172L235.8 37.392H246.825L231.6 26.068Z" fill="white"/>
<path d="M299.25 0.531982C239.25 4.02798 211.5 30.02 205.275 36.176L204 37.392H215.1C245.1 6.91598 288.225 1.51998 299.25 0.531982Z" fill="white"/>
</svg>
